<svg xmlns="http://www.w3.org/2000/svg" width="69.457" height="69.407" viewBox="0 0 69.457 69.407">
  <g id="Group_210" data-name="Group 210" transform="translate(-205.578 -5371.82)">
    <path id="Path_12" data-name="Path 12" d="M62.245,117.354h9.273a10.1,10.1,0,0,0,0-20.044H50.75v5.907h5.6v26.036h-5.4v5.907h16.7v-5.907h-5.4Zm0-5.907v-8.23h9.273a4.123,4.123,0,0,1,0,8.23Z" transform="translate(170.85 5294.975)" fill="#487629"/>
    <path id="Path_13" data-name="Path 13" d="M77.829,129.473A19.371,19.371,0,0,0,71.585,91.74H50.75v5.89H71.585a13.464,13.464,0,0,1,2.642,26.743c-.421.084-.858.151-1.3.2a11.969,11.969,0,0,1-1.346,0H68L76.82,138.9h10.1V132.99H80.186Z" transform="translate(170.85 5291.171)" fill="#487629"/>
    <path id="Path_14" data-name="Path 14" d="M104.8,91.04v57.626H47.12V91.04H104.8m5.89-5.89H41.23v69.407h69.407V85.15Z" transform="translate(164.348 5286.67)" fill="#487629"/>
  </g>
</svg>
