<svg xmlns="http://www.w3.org/2000/svg" width="185.759" height="72.58" viewBox="0 0 185.759 72.58">
  <g id="PR-Logo" transform="translate(0 0)">
    <path id="Path_1" data-name="Path 1" d="M51.481,61.9v4.915h4.3v6.092H41.23V66.817h3.058V47.332H41.23V41.24H54.338c6.982,0,12.6,2.521,12.6,10.444,0,7.739-5.621,10.217-12.6,10.217Zm2.857-14.486H51.481v8.57h2.857c2.974,0,5.159-1,5.159-4.3s-2.185-4.268-5.159-4.268Z" transform="translate(-41.23 -40.719)" fill="#487629"/>
    <path id="Path_2" data-name="Path 2" d="M74.39,56.979c0-9.923,5.882-16.359,14.881-16.359s14.914,6.487,14.914,16.359S98.3,73.33,89.271,73.33,74.39,66.894,74.39,56.979Zm22.359,0c0-6.352-2.848-10.083-7.478-10.083s-7.444,3.739-7.444,10.083,2.815,10.083,7.444,10.083S96.749,63.323,96.749,56.979Z" transform="translate(-46.528 -40.62)" fill="#487629"/>
    <path id="Path_3" data-name="Path 3" d="M149.771,47.329h-2.815L140.8,72.905h-7.024L130.11,53.681l-4.05,19.225h-7.436l-6.159-25.577H109.65V41.237h12.982v6.092h-3.142l3.5,15.553L127.53,41.22h5.94L137.563,62.8l3.512-15.486H138.26V41.237h11.511Z" transform="translate(-52.161 -40.716)" fill="#487629"/>
    <path id="Path_4" data-name="Path 4" d="M189.609,57.078c0,10.612-5.42,15.83-15.175,15.83H160.26V66.817h3.311V47.332H160.26V41.24h14.175C184.19,41.24,189.609,46.466,189.609,57.078Zm-7.444,0c0-6.529-3.1-9.747-8.142-9.747h-3.26V66.817h3.26C179.064,66.817,182.165,63.6,182.165,57.078Z" transform="translate(-60.247 -40.719)" fill="#487629"/>
    <path id="Path_5" data-name="Path 5" d="M221.114,62.3l-.781,10.612h-23.6V66.817h3.058V47.332H196.73V41.24h23.888V51.424h-6.613V47.332h-7.024V53.81H216.4v5.882h-9.419v7.092h7.234l.286-4.52Z" transform="translate(-66.074 -40.719)" fill="#487629"/>
    <path id="Path_6" data-name="Path 6" d="M257.044,72.908a23.646,23.646,0,0,1-4.756.429c-3.142,0-5-1.084-6.319-4.042l-2.689-6c-.454-1.042-.79-1.395-1.941-1.395H239.6v4.915h2.235v6.092H229.35V66.817h3.067V47.332h-3.058V41.24h13.1c7.033,0,12.6,2.395,12.6,10.31,0,4.831-2.815,7.957-6.285,8.4a2.4,2.4,0,0,1,1.361,1.269l1.907,3.563a2.519,2.519,0,0,0,2.437,1.739,3.016,3.016,0,0,0,1.4-.344ZM247.617,51.55c0-2.781-2.185-4.134-5.167-4.134H239.6v8.31h2.848C245.432,55.726,247.617,54.423,247.617,51.55Z" transform="translate(-71.285 -40.719)" fill="#487629"/>
    <path id="Path_7" data-name="Path 7" d="M119.394,119.826a25.812,25.812,0,0,1-5.176.487c-3.445,0-5.478-1.185-6.932-4.428l-2.941-6.571c-.5-1.143-.84-1.521-2.126-1.521h-1.9v5.378h2.445v6.671H89.07v-6.671h3.361V91.813H89.07V85.15h14.351c7.688,0,13.805,2.622,13.805,11.284,0,5.293-3.084,8.722-6.882,9.243a2.663,2.663,0,0,1,1.5,1.378l2.075,3.907c.639,1.244,1.319,1.907,2.672,1.907a3.277,3.277,0,0,0,1.538-.378ZM109.076,96.434c0-3.05-2.4-4.52-5.655-4.52H100.3v9.075h3.126C106.656,100.988,109.076,99.577,109.076,96.434Z" transform="translate(-48.873 -47.734)" fill="#487629"/>
    <path id="Path_8" data-name="Path 8" d="M139.962,91.813v21.342h3.89v6.671H128.19v-6.671h3.9V91.813h-3.9V85.15h15.662v6.663Z" transform="translate(-55.123 -47.734)" fill="#487629"/>
    <path id="Path_9" data-name="Path 9" d="M181.575,91.813H178.55l-8.6,28.013h-8.4l-8.629-28.013H149.89V85.15h14.217v6.663h-2.991l5.3,18.292,5.293-18.292H169V85.15h12.6Z" transform="translate(-58.59 -47.734)" fill="#487629"/>
    <path id="Path_10" data-name="Path 10" d="M217.371,108.206l-.84,11.62H190.66v-6.671h3.361V91.813H190.66V85.15h26.165V96.292h-7.243V91.813h-7.713v7.1H212.2v6.478H201.869v7.764h7.923l.319-4.949Z" transform="translate(-65.104 -47.734)" fill="#487629"/>
    <path id="Path_11" data-name="Path 11" d="M256.332,119.826a25.811,25.811,0,0,1-5.2.471c-3.437,0-5.478-1.185-6.924-4.428l-2.941-6.571c-.5-1.143-.84-1.521-2.134-1.521h-1.9v5.377h2.445v6.671H226v-6.671h3.361V91.813H226V85.15h14.351c7.7,0,13.805,2.622,13.805,11.284,0,5.293-3.075,8.722-6.882,9.243a2.664,2.664,0,0,1,1.5,1.378l2.084,3.907c.63,1.244,1.311,1.907,2.664,1.907a3.361,3.361,0,0,0,1.546-.378ZM246.014,96.434c0-3.05-2.395-4.52-5.655-4.52h-3.126v9.075h3.126C243.645,100.988,246.014,99.577,246.014,96.434Z" transform="translate(-70.75 -47.734)" fill="#487629"/>
    <path id="Path_12" data-name="Path 12" d="M56.489,107.317h4.63a5.041,5.041,0,0,0,0-10.007H50.75v2.949h2.8v13h-2.7v2.949h8.335v-2.949h-2.7Zm0-2.949v-4.109h4.63a2.059,2.059,0,0,1,0,4.109Z" transform="translate(-42.751 -49.677)" fill="#21362c"/>
    <path id="Path_13" data-name="Path 13" d="M64.269,110.578A9.671,9.671,0,0,0,61.152,91.74H50.75v2.941h10.4a6.722,6.722,0,0,1,1.319,13.351c-.21.042-.429.076-.647.1a5.975,5.975,0,0,1-.672,0h-1.79l4.4,7.15h5.041v-2.949H65.446Z" transform="translate(-42.751 -48.787)" fill="#21362c"/>
    <path id="Path_14" data-name="Path 14" d="M72.966,88.091v28.77H44.171V88.091H72.966m2.941-2.941H41.23V119.8H75.881V85.15Z" transform="translate(-41.23 -47.734)" fill="#21362c"/>
  </g>
</svg>
